<?xml version="1.0" encoding="utf-8"?>
<!-- Generator: Adobe Illustrator 18.1.0, SVG Export Plug-In . SVG Version: 6.00 Build 0)  -->
<!DOCTYPE svg PUBLIC "-//W3C//DTD SVG 1.1//EN" "http://www.w3.org/Graphics/SVG/1.1/DTD/svg11.dtd">
<svg version="1.1" id="Layer_1" xmlns="http://www.w3.org/2000/svg" xmlns:xlink="http://www.w3.org/1999/xlink" x="0px" y="0px"
	 viewBox="0 0 575 120" enable-background="new 0 0 575 120" xml:space="preserve">
<polygon fill="#0071B5" points="91,64.5 91,3.4 46,29.3 46,47.2 76,29.9 76,55.9 46,73.3 46,90.5 "/>
<polygon fill="#002A42" points="0,64.5 0,3.4 46,29.3 46,47.2 16,29.9 16,55.9 46,73.3 46,90.5 "/>
<polygon fill="#0071B5" points="0,55.9 0,117 46,91 46,73.2 16,90.5 16,64.5 46,47.1 46,29.9 "/>
<polygon fill="#002A42" points="91,55.9 91,117 46,91 46,73.2 76,90.5 76,64.5 46,47.1 46,29.9 "/>
<text transform="matrix(1 0 0 1 127.6818 78.386)" fill="#002A42" font-family="'OpenSans-Light'" font-size="53">BACKBONE.JS</text>
</svg>
