<?xml version="1.0" encoding="utf-8"?>
<!-- Generator: Adobe Illustrator 18.1.0, SVG Export Plug-In . SVG Version: 6.00 Build 0)  -->
<!DOCTYPE svg PUBLIC "-//W3C//DTD SVG 1.1//EN" "http://www.w3.org/Graphics/SVG/1.1/DTD/svg11.dtd">
<svg version="1.1" id="Layer_1" xmlns="http://www.w3.org/2000/svg" xmlns:xlink="http://www.w3.org/1999/xlink" x="0px" y="0px"
	 viewBox="0 0 167.4 189.5" enable-background="new 0 0 167.4 189.5" xml:space="preserve">
<g id="MGtZyY.tif">
	<g>
		<g id="_x37_LGukL.tif">
			<g>
				<g>
					<path fill="#FDFCFC" d="M84.7,26.4c21.9,0,43.8,0,65.7-0.1c2,0,2.4,0.4,2.4,2.4c-0.1,42-0.1,84,0,125.9c0,2-0.4,2.4-2.4,2.4
						c-43.8-0.1-87.6-0.1-131.4,0c-2,0-2.4-0.4-2.4-2.4c0.1-42,0.1-84,0-125.9c0-2,0.4-2.4,2.4-2.4C40.9,26.4,62.8,26.4,84.7,26.4z
						 M40.4,51.5c0,0.4,0.2,0.7,0.7,0.7l0,0c0,0.4,0.2,0.7,0.7,0.7l0,0c-0.1,0.6,0.1,1,0.6,1.3c4,3.2,4.1,8.2,5.8,12.5
						c-1.3,2.9-3.4,5.4-4.4,8.5l0,0c-2.9,3.1-4.7,6.8-6.1,10.7c-3.4,9.6-0.9,17.9,7.3,24c2.2,1.7,4.6,3.1,6.9,4.6
						c-1.4,3-3.2,5.9-3.9,9.3c1.6,0.1,3.1,0,4.5-0.5c1.2,0.6,2.3,1.2,3.5,1.8c0.1,0.2,0.2,0.3,0.3,0.5c0.1-0.2,0.2-0.4,0.3-0.5l0,0
						c1.3-0.3,1.5-1.4,1.6-2.5l0,0c0.4,0,0.8,0,1.2,0c0.3,0.3,0.6,0.9,0.9,0.9c3.3-0.3,6.4,2.8,9.9,0.6c1-0.6,2.7-0.6,3.9,0.1
						c3,1.7,3.1,0,2.9-2.3c0-0.7,0-1.3,0.1-2c0.2-0.5,0.3-0.9,0.5-1.4c0.9-3,1.9-5.9,2.8-8.9c1.6-2.4,3.2-4.8,4.8-7.3
						c0.9-0.5,1.9-1,2.8-1.5c2-0.8,4-0.7,6.1-0.8c0.6,0,1.3,0.1,1.9,0.1c0.3,0.6,0.8,0.7,1.4,0.7c0.5,1.8,1.6,3.3,2.7,4.8
						c0.6,3.3,0.8,6.7,0.7,10.1c-0.5,0.3-0.7,0.8-0.6,1.4c-0.9,2.5-1.8,5-2.7,7.5c0.3,1.9,1.1,2.4,3.3,2.7c5.7,0.7,9.2-4.5,14.4-5
						c2.7,1.4,6.1,1.7,7.6,5.2c1.2-2,2.6-3.3,4.5-3.8c3.5-0.5,2.9-3.8,4.1-5.9c2.4-0.3,4.9,0.1,6.7-2l0,0c0.6,0.1,1.1,0,1.4-0.7l0,0
						c2.5-2,0.6-2.7-1.1-3.3c-0.8-0.3-2.1,1-2.3-0.9c0.7-0.8,1.3-1.7,2-2.5c1.1-0.9,0.8-1.8-0.1-2.5c-1.2-0.8-2.1-0.2-2.7,1
						c0,0,0,0,0,0c-0.2,0.2-0.5,0.5-0.7,0.7l0,0c-1.5,0.2-2.7,0.1-2.6-1.9c0.1-1,0.1-2.1-1.4-2.1c-2.6,0.5-1.9,3-2.8,4.6
						c-0.7,0.5-1.5,0.7-2.5,0.6c-3.1-0.5-3.3-0.1-2.2,3l0,0c-0.1,0.9,0.5,1.4,0.8,2.1c-3,3-3.1,3-5.1-0.5c-0.6-1-1.2-1.9-1.8-2.9
						c0-0.3,0-0.5,0.1-0.8l0,0c0.9,0,1.4-0.5,1.4-1.4l0,0c0.2-0.2,0.5-0.5,0.7-0.7l0,0c0.2-0.2,0.5-0.5,0.7-0.7c0,0,0,0,0,0
						c0.3-0.2,0.5-0.5,0.8-0.7c0.7-0.5,0.6-1.2,0.6-1.9c3-2.8,4.4-6.2,4-10.3c0.1-0.2,0.1-0.3,0.1-0.5c1.4-1.3,1.1-3.1,1-4.7
						c-0.1-7.5-2.5-14.3-6.4-20.6c0.5-2.6,1.3-5,4-6.1c2.6-1,2.7-3,2-5.2c-0.8-2.5-2.7-1-4.2-1c0.3-0.6,0.6-1.2,0.9-1.8l0,0
						c0.2-0.2,0.5-0.5,0.7-0.7c0,0,0,0,0,0c0.2-0.2,0.5-0.5,0.7-0.7c0,0,0,0,0,0c0.2-0.2,0.5-0.5,0.7-0.7l0,0
						c0.3-0.2,0.6-0.5,0.9-0.7c0.2-0.2,0.3-0.3,0.5-0.5c0.5-0.4,0.8-0.9,0.7-1.5c0,0,0,0,0,0c0.2-0.2,0.5-0.5,0.7-0.7
						c0.4-0.7,0.9-1.3,1.3-2c0.7-0.2,0.9-0.7,0.8-1.4l0,0c0.2-0.2,0.5-0.5,0.7-0.7l0,0c0.6-0.3,0.7-0.8,0.7-1.4l0,0
						c1.6-3.1,3-6.2,0.7-9.5l0,0c0.1-0.6-0.2-1.1-0.7-1.5c-0.2-0.2-0.3-0.4-0.5-0.6c-0.4-0.5-0.9-0.8-1.5-0.7c0,0,0,0,0,0
						c-0.2-0.2-0.5-0.5-0.7-0.7c0,0,0,0,0,0c-1.2-1.3-2.7-0.6-4.1-0.6c-2.4,0.2-4.2,1.2-5.5,3.3c-2.2,0.3-3.6,1.7-4.8,3.4
						c-2.7,0.3-4.7,2.6-7.5,2.4c-9.3-5-19.2-5.8-29.6-4.5c-4.5,0.6-8.5,3.1-12.9,3.8c-1.8-0.3-3.6-0.6-5.4-0.9
						c-2.1-1.2-4.4-1.6-6.8-2c-3.8-0.6-7.6-1.2-11,1.3c-1.8,0.5-2.9,1.8-3.8,3.4c-0.2,0.5-0.5,0.9-0.7,1.4c0.5,1,0.6,2.1,0.5,3.3
						c0,1.4-0.1,2.8,1.4,3.6l0,0c0,0.6,0.1,1.1,0.7,1.4l0,0c0.2,0.2,0.5,0.5,0.7,0.7l0,0c0.2,0.2,0.5,0.5,0.7,0.7l0,0
						C39.7,51.2,39.9,51.5,40.4,51.5L40.4,51.5z M68,139.6c-0.1,2.4-0.3,4.7-0.1,7.1c0.5,6.2,2.9,7.4,8.5,4.4
						c1.5-0.8,2.6-1.1,4.3-0.1c2.7,1.5,5.7,1.8,8.8,1c4.1-1,8.1-2,11.9-3.9c1.4-0.7,2.2-0.9,3.3,0.6c3,3.9,7.1,4.4,11.6,3.5
						c2.4-0.5,4.3-1.8,6.3-3.1c1.4,2.7,2.2,3.6,3.5,3.4c1.8-0.3,2.4-2,3-3.4c1.5-3.8,2.9-7.6,4.6-12.1c0.5,1.9,0.7,3,1.1,4
						c1.3,3.8,3.7,5.2,7.6,4c1.4-0.4,2.7-1.1,4-1.8c1.9-1,3.4-2.5,2.3-4.6c-1.2-2.3-2.7-0.1-3.9,0.4c-4.2,1.8-6,0.7-5.9-3.9
						c0-1.6,0.3-3.2,0.2-4.7c0-1.1,0.1-2.4-1.2-2.9c-1.3-0.5-2.5,0.3-3.3,1.2c-1.3,1.6-2.5,3.3-4,5.5c0-1.8,0-2.9,0-4.1
						c-0.1-1.2,0.3-2.6-1.6-2.8c-1.6-0.1-2.5,0.7-2.9,2.2c-0.7,3-1.6,5.9-2.1,8.9c-0.9,4.6-7,8.9-11.5,7.9c-0.9-0.2-2-0.4-2.1-1.4
						c-0.1-1,1.1-1,1.7-1.3c3.5-1.7,6.7-3.8,7.9-7.9c1-3.3,0.3-7-1.9-8.3c-3-1.7-5.9-1-8.5,1c-3.3,2.5-5.2,5.9-6.1,9.9
						c-0.9,3.8-2.2,4.9-6.2,5.5c2.9-11.2,1.2-15.4-6.5-16c3.4-4.7,6-9.7,6.5-15.4c0.4-4.1-1.4-8.1-3.7-8.8c-2.5-0.7-6.4,1.7-8.3,5.3
						c-2.8,5-4.1,10.5-4.7,16.1c-0.6,5.9-1.4,11.9-2.1,17.8c-0.3,2.4-2,3.4-3.9,3.4c-2.2,0-1.4-2.2-1.5-3.5
						c-0.1-1.2,0.2-2.5,0.4-3.7c0.3-2.9,0.7-5.8,1-8.7c0.1-1.2-0.2-2.3-1.4-2.8c-1.2-0.5-2.3-0.2-3.1,0.6c-0.9,0.9-1.6,1.9-2.4,2.8
						c-1.3,1.6-1.9,3.7-4,5.3c0.1-1.1,0.2-1.7,0.3-2.4c0.2-2.2,1.7-5.1-0.7-6.1c-2.7-1.2-4.6,1.5-6.1,3.6c-0.8,1.1-1.3,2.4-2.1,3.5
						c-0.4,0.7-0.5,1.8-1.9,1.7c0.4-2,0.8-3.9,1-5.8c0.2-1.5,0.5-3.3-1.9-3.6c-2-0.2-3.1,0.6-3.5,2.7c-0.7,3.5-1.5,7-2.3,10.6
						c-0.7,3.4-8.2,7.3-11.5,5.9c-0.7-0.3-1.3-0.6-1.4-1.3c-0.2-0.9,0.7-1,1.3-1.3c2.4-1.1,4.6-2.4,6.4-4.3
						c3.2-3.4,3.7-7.7,1.1-10.3c-2.9-2.9-8-2.5-11.2,1c-2.1,2.3-3.3,5.1-3.7,8.2c-0.3,2.2-1.5,2.4-3,1.8c-1.8-0.7-3.2-1.2-3.9,1.2
						c-0.7,2.5,1.3,2.6,2.8,3.3c1.3,0.5,3.1,0.2,3.8,1.8c2.9,7.2,8.7,6.8,14,5c2.3-0.8,4.3-3,6.6,0.5c0.9,1.4,3,0.4,3.9-1.2
						c1.2-2.1,2.2-4.4,3.3-6.6c0.7-1.4,1.1-3.1,2.5-4.5c0.5,2.8-0.2,5.2-0.3,7.7c-0.1,2.2,0.2,4.1,2.8,4.7c2.6,0.6,3.2-1.4,3.9-3.2
						c1.2-3.2,2-6.5,3.8-9.3C67.6,139.5,67.8,139.6,68,139.6z"/>
					<path fill="#E34E2D" d="M67.4,139.4c-1.9,2.9-2.7,6.2-3.8,9.3c-0.7,1.8-1.3,3.8-3.9,3.2c-2.6-0.6-2.9-2.5-2.8-4.7
						c0.1-2.4,0.8-4.9,0.3-7.7c-1.5,1.3-1.8,3-2.5,4.5c-1.1,2.2-2.1,4.5-3.3,6.6c-0.9,1.6-3,2.6-3.9,1.2c-2.3-3.4-4.3-1.2-6.6-0.5
						c-5.3,1.8-11.1,2.3-14-5c-0.7-1.6-2.5-1.3-3.8-1.8c-1.5-0.6-3.5-0.7-2.8-3.3c0.7-2.4,2.1-1.9,3.9-1.2c1.5,0.6,2.7,0.4,3-1.8
						c0.4-3,1.6-5.9,3.7-8.2c3.1-3.4,8.3-3.9,11.2-1c2.6,2.6,2.2,6.9-1.1,10.3c-1.8,1.9-4.1,3.2-6.4,4.3c-0.5,0.3-1.5,0.4-1.3,1.3
						c0.1,0.7,0.7,1.1,1.4,1.3c3.3,1.4,10.7-2.5,11.5-5.9c0.8-3.5,1.6-7,2.3-10.6c0.4-2.1,1.5-2.9,3.5-2.7c2.4,0.2,2.1,2.1,1.9,3.6
						c-0.2,1.9-0.7,3.9-1,5.8c1.4,0.1,1.5-1,1.9-1.7c0.7-1.1,1.3-2.4,2.1-3.5c1.5-2.2,3.4-4.8,6.1-3.6c2.4,1,1,4,0.7,6.1
						c-0.1,0.7-0.2,1.3-0.3,2.4c2.1-1.6,2.7-3.7,4-5.3c0.8-1,1.5-2,2.4-2.8c0.9-0.8,2-1.1,3.1-0.6c1.2,0.5,1.6,1.6,1.4,2.8
						c-0.3,2.9-0.7,5.8-1,8.7c-0.1,1.2-0.4,2.5-0.4,3.7c0.1,1.3-0.8,3.4,1.5,3.5c1.9,0,3.7-1,3.9-3.4c0.7-5.9,1.5-11.9,2.1-17.8
						c0.6-5.7,1.9-11.1,4.7-16.1c2-3.6,5.8-6,8.3-5.3c2.3,0.6,4.1,4.7,3.7,8.8c-0.5,5.8-3.1,10.7-6.5,15.4c7.7,0.6,9.4,4.8,6.5,16
						c4-0.6,5.3-1.8,6.2-5.5c0.9-4,2.8-7.4,6.1-9.9c2.6-2,5.5-2.7,8.5-1c2.2,1.3,3,5,1.9,8.3c-1.3,4-4.4,6.1-7.9,7.9
						c-0.6,0.3-1.8,0.3-1.7,1.3c0.1,1,1.2,1.2,2.1,1.4c4.5,0.9,10.6-3.4,11.5-7.9c0.6-3,1.4-5.9,2.1-8.9c0.4-1.5,1.2-2.4,2.9-2.2
						c1.9,0.1,1.5,1.6,1.6,2.8c0.1,1.2,0,2.4,0,4.1c1.6-2.2,2.7-3.9,4-5.5c0.8-0.9,1.9-1.7,3.3-1.2c1.3,0.5,1.2,1.9,1.2,2.9
						c0.1,1.6-0.2,3.1-0.2,4.7c-0.1,4.6,1.7,5.7,5.9,3.9c1.2-0.5,2.7-2.7,3.9-0.4c1.1,2.1-0.4,3.6-2.3,4.6c-1.3,0.7-2.6,1.4-4,1.8
						c-3.9,1.1-6.3-0.2-7.6-4c-0.3-1.1-0.6-2.2-1.1-4c-1.7,4.5-3.1,8.3-4.6,12.1c-0.6,1.4-1.2,3-3,3.4c-1.2,0.2-2.1-0.7-3.5-3.4
						c-2,1.2-4,2.6-6.3,3.1c-4.5,0.9-8.6,0.4-11.6-3.5c-1.1-1.5-2-1.2-3.3-0.6c-3.8,1.9-7.8,2.9-11.9,3.9c-3.1,0.8-6.1,0.6-8.8-1
						c-1.6-0.9-2.8-0.7-4.3,0.1c-5.5,3-8,1.8-8.5-4.4c-0.2-2.3,0.1-4.7,0.1-7.1c0.1-0.4,0.4-0.8-0.2-0.9
						C67.7,138.6,67.5,139.1,67.4,139.4z M83.1,144.2c-0.2,2.8,0.5,3.5,3.1,3.4c4.1-0.2,7.4-5.1,6.6-10.1c-0.3-1.9-0.8-3.6-3.1-3.9
						c-2.1-0.3-3.5,0.8-4.4,2.5C84,138.7,83.6,141.6,83.1,144.2z M83.9,128.4c3.4-3.3,8.2-13.5,8.2-17c0-0.8,0.3-2-0.8-2.3
						c-0.9-0.3-1.3,0.7-1.7,1.4c-0.8,1.6-1.8,3.2-2.3,4.9C86.1,119.4,85.1,123.6,83.9,128.4z M110,140.1c2.7,0.2,6-4.1,5.2-6.7
						c-0.7-2.1-2.2-2.5-3.7-0.7c-1.4,1.6-2.1,3.7-2.5,5.8C108.8,139.3,108.8,140.1,110,140.1z M39,134.4c0-0.8-0.2-1.6-0.9-2.1
						c-0.9-0.6-1.7-0.2-2.5,0.3c-2.1,1.5-2.7,3.8-3.1,6.2c-0.1,0.8,0.1,1.3,1,1.3C35.7,140.1,39.1,136.6,39,134.4z"/>
					<path fill="#FDF6EA" d="M80.3,109.7c-0.9,3-1.9,5.9-2.8,8.9c-9.8,0.3-18.9-2.4-27.5-7c-12.8-6.8-16.1-18.9-8.5-31.2
						c1-1.6,2.3-3.1,2.2-5.2c0,0,0,0,0,0c2.5-0.7,2.5-3.7,4.5-5.2c0.7,2.7,2.3,4.5,4.3,6c0.1,0.4-0.1,1.1,0.2,1.3
						c3.7,2.7,2.9,6.6,3.4,10.4C57.4,97.7,70.1,109,80.3,109.7z"/>
					<path fill="#191511" d="M121.5,56c1.5,0,3.4-1.6,4.2,1c0.7,2.2,0.6,4.1-2,5.2c-2.7,1.1-3.4,3.5-4,6.1c-0.9,0.5-1.4,1.2-1.4,2.2
						c-1.8,2.5-2.7,5.7-5.4,7.4c-3.4,0.5-7.3,0.1-8.3,4.7c-2.9,3.3-4.1,7.6-6.5,11.2c-0.9-0.8-2.2-1.1-2.9-2.3
						c1.2-0.2,2.6,0.2,3.3-1.2c1.5-2.7,3-5.5,4.5-8.3c0.5-1,0.2-1.4-1-1.4c-5.1,0.2-9.8,5-9.5,9.7c-0.6-0.2-1.3-0.3-1.9-0.5
						c-0.6-2.4,1.1-5.2-1.3-7.3c1.3-1.3,3-1,4.6-1.5c2.8-0.9,6-0.9,9.2-2.9c-1.9-0.3-3-0.5-4.1-0.6c-5.8-0.7-9.1-3.7-10-9.6
						c-0.4-2.5-1.1-5-2.2-7.4c-0.7-1.4-1.8-1.8-3.3-1.8c-1.5,0-2.3,0.7-2.8,1.9c-0.4,1.1-0.9,2.1-1.2,3.2c-2.1,8-7.1,12.2-15.5,11.9
						c-7.4,0.6-13-1.9-15.8-9.2c-1.7-4.3-1.8-9.3-5.8-12.5c0-0.5,0-0.9,0-1.4c0.4-0.8,0.5-1.8,1.5-2.2c3.7,1.5,7.3,0.9,10.8-0.6
						c0.7,0.2,1.3,0.4,2,0.7c7.3-1,14.6-1,21.6,1.5c3.6,1.3,7.3,1.8,10.9,1.2c3.9-0.7,7.8-0.3,11.7-0.5c0.9,0,1.7-0.3,2.6-0.4
						c4,0.6,8.1,1.3,12.1,1.9l0-0.1c-0.1,0.6,0.3,0.6,0.7,0.7c0.3,0.5,0.8,0.6,1.3,0.7C118.7,57,120.1,56.4,121.5,56z M120.2,58.1
						c-0.6,0-1.2,0.1-1.9,0.1c-0.6-1.1-1.6-1.6-2.7-1.9c-7.1-2.4-14.3-3.2-21.9-2.5c-4.5,0.4-9,2-13.6,0.3
						c-5.1-1.9-10.4-2.6-15.9-2.7c-5.7-0.1-11.4,1.2-17.2,0.8c-1-0.1-2.4-0.6-3.1,0.6c-0.9,1.6,0.8,2.1,1.6,2.9
						c0.9,0.9,1.2,2.1,1.6,3.3c0.8,2.8,1.7,5.6,2.8,8.3c2,5.1,5.9,7.4,11.4,7.2c2.2-0.1,4.5-0.5,6.7-0.5c4.7-0.2,7-3,8.7-6.8
						c0.9-2.1,1.8-4.1,2.5-6.3c0.7-2.4,2.1-3.4,4.7-3.4c2.7,0,3.8,1.5,4.5,3.7c0.7,2.2,1.4,4.5,2,6.8c1.5,6,3.5,7.8,9.6,8.5
						c1.3,0.1,2.7,0.3,4,0.6c5.3,1,9-0.3,10.7-3.5c0.6-1.1,0.7-1.6-0.7-1.8c0.6-1.4,1.1-2.8,1.7-4.2c1.5,0.4,2.3-0.3,2.9-1.6
						c1.1-2.5,2.2-5,5.1-5.9c0.7-0.2,1.1-0.8,0.8-1.6c-0.3-0.8-0.6-1.5-1.6-1.5C122,56.8,120.9,57,120.2,58.1z"/>
					<path fill="#FDF6EA" d="M121,104.4c0,0.7,0.1,1.4-0.6,1.9c-0.3,0.2-0.5,0.5-0.8,0.7c0,0,0,0,0,0c-0.2,0.2-0.5,0.5-0.7,0.7
						c0,0,0,0,0,0c-0.2,0.2-0.5,0.5-0.7,0.7c0,0,0,0,0,0c-0.9,0-1.4,0.5-1.4,1.4c0,0,0,0,0,0c-1,0-2.1-0.1-2,1.4l0,0
						c-5,0.9-9.4,3.7-14.3,4.6c0.2-3.4-0.1-6.8-0.7-10.1c8.3-5.1,16-10.5,15.6-21.8c5.4,2.2,7.3,4.9,6.8,10.5
						c-0.2,2.7-0.9,5.3-1.4,7.9C120.6,103,120.1,103.7,121,104.4z"/>
					<path fill="#FBEFDD" d="M80.3,109.7c-10.2-0.7-22.9-12-24.2-22c-0.5-3.8,0.3-7.7-3.4-10.4c-0.2-0.2-0.1-0.9-0.2-1.3
						c3.9,0.9,7.8,1.8,11.8,0.9c0.3,0.3,0.7,0.7,1,1c-0.2,1.5-1.3,1.2-2.3,1.3c-1.5,0.2-3.1,0.4-4.6,0.9c-1.2,0.4-1.8,1.3,0.1,1.8
						c0.6,1.9,2.4,0.7,3.4,1.4c3.3,2.3,5.4,5.4,6.2,9.4c-1.9,1.4-2.7,3.4-1.4,5.4c0.8,1.3,1.5,3.6,4,2c0.4,0,0.9,0,1.3,0l0,0
						c0.2,0.2,0.5,0.5,0.7,0.7l0,0c1,1.3,2.5,1.3,3.9,1.4c2.8,0,5.6,0.1,8.3,0.1C83.5,104.8,81.9,107.3,80.3,109.7z"/>
					<path fill="#FBEFDD" d="M115.6,83.8c0.4,11.3-7.3,16.7-15.6,21.8c-1.1-1.5-2.2-2.9-2.7-4.8c6-4.7,8.4-11.5,10.8-18.3
						c0.2-0.1,0.4-0.2,0.7-0.3C111,82.8,113.5,82.3,115.6,83.8z"/>
					<path fill="#B88341" d="M115.6,83.8c-2-1.5-4.5-1.1-6.8-1.6c-0.1-1.7,0.3-3,2.4-3.1c0.8,0,1.4-0.6,1.7-1.3
						c2.8-1.8,3.6-5,5.4-7.4c2.3,0.2,2.5,2.4,3.2,3.9c2.8,6.1,3.9,12.6,3.6,19.3c0,0.2,0,0.4-0.1,0.5c-1.4,2.7-1.4,6-3.9,8.1
						c0.5-2.6,1.2-5.3,1.4-7.9C122.8,88.7,121,86,115.6,83.8z"/>
					<path fill="#B88341" d="M127.1,123.7c-1.9,0.5-3.3,1.8-4.5,3.8c-1.5-3.5-4.9-3.8-7.6-5.2c-0.4-1.2-1.4-1.8-2.5-2.1
						c-0.2-1.5-1.2-2.4-2.5-3.1c-1.4-1.6-1.4-2.8,0.9-3.5c1.4-0.5,2.6-1.3,3.9-1.9c0,2.1,2.5,3.4,1.6,5.9c-0.3,0.9,1.2,0.8,2.1,0.7
						c2.7-0.3,4.7-1.8,6.8-3.3c1.7,0.2,3,1.1,4.4,2C128.9,119.3,128,121.5,127.1,123.7z"/>
					<path fill="#FAC1AA" d="M54.6,49.9c-3.5,1.5-7.1,2.2-10.8,0.6c-0.2-6.1-2.8-9.1-8.1-9.3c0.2-0.5,0.5-0.9,0.7-1.4
						c1.1-0.2,2.2-0.4,3.2-0.7C47.4,36.9,54.6,42,54.6,49.9z"/>
					<path fill="#FBD0BD" d="M128.3,46.8c-0.4,0.7-0.9,1.3-1.3,2c-0.2,0.2-0.5,0.5-0.7,0.7c0,0,0,0,0,0c-0.6,0.3-0.7,0.9-0.7,1.5
						c-0.2,0.2-0.3,0.3-0.5,0.5c-0.3,0.2-0.6,0.5-0.9,0.7c0,0,0,0,0,0c-0.2,0.2-0.5,0.5-0.7,0.7c0,0,0,0,0,0
						c-0.2,0.2-0.5,0.5-0.7,0.7c0,0,0,0,0,0c-0.2,0.2-0.5,0.5-0.7,0.7c0,0,0,0,0,0c-1.4-0.5-2.8,1.6-4.2,0.1c0.9-3.6,2.4-7,4.6-10
						c3-4,5.5-8.2,0.9-12.7c-0.1-0.1,0-0.2,0-0.3c0,0,0,0,0,0c1.4-0.2,2.7-0.5,4.1-0.7c0,0,0,0,0,0c0.2,0.2,0.5,0.5,0.7,0.7
						c0,0,0,0,0,0c0.3,0.7,0.9,0.7,1.5,0.7c0.2,0.2,0.3,0.4,0.5,0.6c0,0.6,0,1.2,0.7,1.5c0,0,0,0,0,0c0.3,3.2-0.7,6.3-0.7,9.5
						c0,0,0,0,0,0c-0.6,0.3-0.7,0.8-0.7,1.4c0,0,0,0,0,0c-0.2,0.2-0.5,0.5-0.7,0.7c0,0,0,0,0,0C128.5,45.7,128.4,46.2,128.3,46.8z"
						/>
					<path fill="#FBD0BD" d="M94,100.1c-2.1,0.1-4.1,0-6.1,0.8c-5,0.3-10,0.5-15,0c0,0,0,0,0,0c-0.2-0.2-0.5-0.5-0.7-0.7
						c0,0,0,0,0,0c3-2.3,6.7-3.4,10.2-4.8c1.7-1.8,4.2-1,6.1-2c1.4,0,2.9-0.1,4.3,0c2.6,0.1,4.3,1.1,3.8,4.1l0,0
						c-0.8,0.5-0.7,1.3-0.7,2.1l0,0C95.2,99.6,94.5,99.4,94,100.1z"/>
					<path fill="#926635" d="M117.5,55.6c-0.5-0.1-1-0.1-1.3-0.7c-0.2-0.2-0.5-0.5-0.7-0.7c0,0,0,0.1,0,0.1
						c-1.1-5.6-4.2-10.1-8.9-12.9c-12.8-7.7-26.4-7.3-40-2.2c-4.1,1.5-7.3,4.2-9.2,8.3c-0.6,0.4-0.7,1-0.8,1.6c-2-2.7,1-4.2,1.5-6.4
						c1.3-1.1,3.1-1.7,4-3.4c0.7,0,1.3-0.3,1.3-1.1c4.5-0.7,8.4-3.2,12.9-3.8c10.3-1.3,20.2-0.5,29.6,4.5c0.7,0.4,1.3,0.8,2,1.2
						c1.4,1.4,2.9,2.7,4.3,4.1c1.1,1.6,2.2,3.2,3.3,4.8c0.7,1.8,1.4,3.5,2.1,5.3C117.5,54.7,117.5,55.1,117.5,55.6z"/>
					<path fill="#E7D0AB" d="M43.8,75.1c0.1,2.1-1.2,3.6-2.2,5.2c-7.6,12.4-4.3,24.4,8.5,31.2c8.6,4.6,17.6,7.3,27.5,7
						c-0.2,0.5-0.3,0.9-0.5,1.4c-3.6,0-7.2,0-10.6-1c-2.2-0.6-4.1-0.4-6,0.7c0.3-1.3,0.5-2.4-1.3-2.8c-1.5-0.4-2.9-1.3-4.5-1.2
						c-0.6-1.1-1.6-1.4-2.7-1.2c-2.3-1.5-4.7-3-6.9-4.6c-8.2-6.2-10.8-14.5-7.3-24C39.1,82,40.9,78.2,43.8,75.1z"/>
					<path fill="#F9EAD4" d="M60.5,119.7c1.9-1.1,3.7-1.3,6-0.7c3.4,0.9,7,0.9,10.6,1c0,0.7-0.1,1.3-0.1,2c0.1,2.2,0.1,4-2.9,2.3
						c-1.2-0.7-2.9-0.8-3.9-0.1c-3.5,2.2-6.6-0.8-9.9-0.6c-0.3,0-0.6-0.6-0.9-0.9c0.2-0.8,0.8-1.4,0.6-2.3
						C60.1,120.1,60.3,119.9,60.5,119.7z"/>
					<path fill="#FBD0BD" d="M108.1,82.6c-2.4,6.8-4.9,13.6-10.8,18.3c-0.6,0-1.1-0.1-1.4-0.7c0-0.2,0-0.4,0-0.7c0,0,0,0,0,0
						c0.7-0.5,0.6-1.3,0.7-2.1c0,0,0,0,0,0c1.1-1,1.4-2.3,1.5-3.7c2.4-3.6,3.6-7.9,6.5-11.2C105.7,82.6,106.9,82.6,108.1,82.6z"/>
					<path fill="#F9EAD4" d="M110,117.2c1.3,0.6,2.2,1.5,2.5,3.1c-4.8,2.4-10.1,3.1-15.2,4.3c0.9-2.5,1.8-5,2.7-7.5
						C103.3,116.6,106.7,115,110,117.2z"/>
					<path fill="#FBD0BD" d="M137.9,108.4c-0.7,0.8-1.3,1.7-2,2.5c-0.7,0.4-1.5,0.9-1.2,1.8c0.4,1,1.3,1.2,2.3,0.8
						c1.8-0.8,2.2,0.1,2.2,1.7c0,0,0,0,0,0c-0.6,0-1.1,0.1-1.4,0.7c0,0,0,0,0,0c-2.3,0.3-4.7,1.3-5.9-2c-0.5-1.5-2.4-1.7-3.8-1.3
						c-1.9,0.6-3.6-0.1-5.3-0.7c0,0,0,0,0,0c0-2.1,1.1-2.3,2.8-1.7c1.5,0.4,3.1,0.7,1.9-1.8c0.9-1.5,0.3-4.1,2.8-4.6
						c0.7,1.2,0.7,2.5,0.7,3.9c0,1.1,0.4,2.1,1.6,2.1c1.2,0.1,1.7-0.8,1.7-1.9c0,0,0,0,0,0c0.2-0.2,0.5-0.5,0.7-0.7c0,0,0,0,0,0
						C136.4,106.8,137.9,106.3,137.9,108.4z"/>
					<path fill="#B88341" d="M62.1,39.3c-0.8,1.7-2.7,2.2-4,3.4c-1.8-0.3-3.3-1.4-4.9-2.3c-4-2.3-8.1-4.5-13-3.9
						c3.4-2.5,7.3-1.9,11-1.3c2.3,0.4,4.7,0.8,6.8,2C58.7,39.2,60.9,38.3,62.1,39.3z"/>
					<path fill="#F0A385" d="M40.2,36.5c4.9-0.6,9,1.5,13,3.9c1.6,0.9,3,2,4.9,2.3c-0.5,2.1-3.6,3.6-1.5,6.4c0,0.5,0,1.1,0,1.6
						c-0.7-0.2-1.3-0.4-2-0.7c0.1-7.9-7.1-13.1-14.9-10.8c-1.1,0.3-2.1,0.5-3.2,0.7C37.3,38.3,38.4,37.1,40.2,36.5z"/>
					<path fill="#FDF6EA" d="M97.3,124.6c5.1-1.3,10.4-1.9,15.2-4.3c1.1,0.3,2.1,0.8,2.5,2.1c-5.2,0.6-8.8,5.7-14.4,5
						C98.4,127,97.6,126.5,97.3,124.6z"/>
					<path fill="#FBD0BD" d="M35.7,41.3c5.2,0.2,7.9,3.2,8.1,9.3c-1,0.4-1.1,1.4-1.5,2.2c-0.2,0-0.4,0-0.6,0.1c0,0,0,0,0,0
						c-0.2-0.2-0.4-0.4-0.7-0.7c0,0,0,0,0,0c-0.2-0.2-0.4-0.4-0.7-0.7c0,0,0,0,0,0c-0.2-0.2-0.4-0.4-0.7-0.7c0,0,0,0,0,0
						c-0.2-0.2-0.5-0.5-0.7-0.7c0,0,0,0,0,0c-0.2-0.2-0.5-0.5-0.7-0.7c0,0,0,0,0,0c0-0.6-0.1-1.1-0.7-1.4c0,0,0,0,0,0
						c0.1-1.4-0.3-2.6-1.4-3.6C36.3,43.4,36.2,42.3,35.7,41.3z"/>
					<path fill="#B88341" d="M60.5,119.7c-0.2,0.2-0.4,0.4-0.6,0.7c-1.2,0.3-1.9,1-1.7,2.3c0,0,0,0,0,0c-1.4,0.3-1.5,1.4-1.6,2.5
						c0,0,0,0,0,0c-0.2-0.1-0.4,0-0.5,0c-1.2-0.6-2.3-1.2-3.5-1.8c-0.1-2.8,2.1-5,2.2-7.7c1.6-0.1,3,0.8,4.5,1.2
						C61,117.3,60.8,118.4,60.5,119.7z"/>
					<path fill="#E7D0AB" d="M64.4,76.9c-4,0.9-7.9-0.1-11.8-0.9c-2-1.5-3.6-3.3-4.3-6c-2,1.4-1.9,4.5-4.5,5.2
						c1-3.1,3.1-5.5,4.4-8.5c2.8,7.3,8.4,9.8,15.8,9.2C64.1,76.3,64.2,76.6,64.4,76.9z"/>
					<path fill="#FAC1AA" d="M122.9,111.8c1.7,0.7,3.4,1.3,5.3,0.7c1.4-0.4,3.3-0.2,3.8,1.3c1.2,3.3,3.6,2.4,5.9,2
						c-1.8,2.1-4.4,1.7-6.7,2c-0.3-0.6-0.8-0.8-1.4-0.8c-1.4-0.9-2.7-1.8-4.4-2c-0.2-0.8-0.7-1.2-1.6-1.2
						C123.5,113.2,122.8,112.6,122.9,111.8z"/>
					<path fill="#926635" d="M125,93.6c0.3-6.7-0.8-13.2-3.6-19.3c-0.7-1.5-0.9-3.7-3.2-3.9c0-1,0.6-1.7,1.4-2.2
						c3.9,6.3,6.3,13.2,6.4,20.6C126.1,90.5,126.5,92.3,125,93.6z"/>
					<path fill="#926635" d="M54.7,115.7c-0.1,2.7-2.2,4.9-2.2,7.7c-1.4,0.4-2.8,0.6-4.5,0.5c0.8-3.4,2.5-6.3,3.9-9.3
						C53.1,114.3,54.1,114.6,54.7,115.7z"/>
					<path fill="#926635" d="M123.8,113.8c0.9-0.1,1.4,0.4,1.6,1.2c-2.1,1.4-4.2,3-6.8,3.3c-0.9,0.1-2.4,0.2-2.1-0.7
						c0.9-2.5-1.6-3.8-1.6-5.9c0.1-0.2,0.2-0.4,0.1-0.6c0,0,0,0,0,0c0.6-0.2,1.3-0.5,1.9-0.7c0.6,1,1.2,1.9,1.8,2.9
						C120.7,116.9,120.8,116.9,123.8,113.8z"/>
					<path fill="#E7D0AB" d="M114.9,111.1c0.1,0.2,0,0.4-0.1,0.6c-1.3,0.7-2.5,1.5-3.9,1.9c-2.3,0.8-2.3,1.9-0.9,3.5
						c-3.3-2.2-6.7-0.6-10-0.1c0-0.6,0.1-1.1,0.6-1.4C105.6,114.8,110,112,114.9,111.1z"/>
					<path fill="#FAC1AA" d="M72.9,100.9c5,0.5,10,0.3,15,0c-0.9,0.5-1.9,1-2.8,1.5c-2.8,0-5.6-0.1-8.3-0.1
						C75.3,102.3,73.9,102.2,72.9,100.9z"/>
					<path fill="#926635" d="M121,102.3c2.5-2.1,2.5-5.5,3.9-8.1c0.4,4.1-1,7.5-4,10.3C120.1,103.7,120.6,103,121,102.3z"/>
					<path fill="#926635" d="M129.8,117c0.6,0,1.1,0.2,1.4,0.8c-1.2,2.1-0.6,5.4-4.1,5.9C128,121.5,128.9,119.3,129.8,117z"/>
					<path fill="#FAC1AA" d="M139.3,115.1c0-1.5-0.5-2.5-2.2-1.7c-1,0.4-1.9,0.2-2.3-0.8c-0.4-0.9,0.5-1.4,1.2-1.8
						c0.1,1.9,1.5,0.6,2.3,0.9C139.9,112.5,141.8,113.1,139.3,115.1z"/>
					<path fill="#FAC1AA" d="M127.6,108.2c1.2,2.5-0.4,2.3-1.9,1.8c-1.7-0.5-2.8-0.3-2.8,1.7c-1.2-3.1-0.9-3.5,2.2-3
						C126.1,108.9,126.8,108.7,127.6,108.2z"/>
					<path fill="#FAC1AA" d="M134.5,107.6c0,1.2-0.5,2-1.7,1.9c-1.2-0.1-1.6-1-1.6-2.1c0-1.3,0.1-2.7-0.7-3.9c1.5,0,1.5,1.1,1.4,2.1
						C131.7,107.7,133,107.8,134.5,107.6z"/>
					<path fill="#E7D0AB" d="M107.8,40c-0.7-0.4-1.3-0.8-2-1.2c2.8,0.2,4.8-2.1,7.5-2.4c0,0,0.1,0.1,0.1,0.1
						C112.1,38.5,109.8,38.9,107.8,40z"/>
					<path fill="#FAC1AA" d="M130.5,43.4c0-3.2,1-6.3,0.7-9.5C133.5,37.2,132,40.3,130.5,43.4z"/>
					<path fill="#E7D0AB" d="M118.2,33.1c1.3-2,3.2-3.1,5.5-3.3c0,0.4,0,0.9,0,1.3c0,0,0,0,0,0c-1.2-0.1-1.7,0.9-2.6,1.3
						c-0.9,0.2-1.9,0.5-2.8,0.7C118.3,33.2,118.2,33.1,118.2,33.1z"/>
					<path fill="#F0A385" d="M117.5,55.6c0-0.4,0-0.9-0.1-1.3c0.2,0,0.5,0,0.7,0c1.4,1.5,2.8-0.5,4.2-0.1c-0.3,0.6-0.6,1.2-0.9,1.8
						C120.1,56.4,118.7,57,117.5,55.6z"/>
					<path fill="#E7D0AB" d="M113.4,36.5c1.2-1.7,2.6-3.1,4.8-3.4c0,0,0.1,0.1,0.1,0.1c-1.1,1.7-2.8,2.7-4.7,3.4L113.4,36.5z"/>
					<path fill="#B47C3A" d="M62.1,39.3c-1.2-1-3.3-0.1-4.1-2c1.8,0.3,3.6,0.6,5.4,0.9C63.3,39,62.8,39.2,62.1,39.3z"/>
					<path fill="#FAC1AA" d="M137.9,108.4c0-2.2-1.5-1.7-2.8-1.5c0.6-1.2,1.5-1.8,2.7-1C138.7,106.6,139,107.6,137.9,108.4z"/>
					<path fill="#FAC1AA" d="M123.7,31.1c0-0.4,0-0.9,0-1.3c1.4,0,2.9-0.7,4.1,0.6C126.4,30.7,125,30.9,123.7,31.1z"/>
					<path fill="#E7D0AB" d="M58.2,122.7c-0.2-1.3,0.6-2,1.7-2.3c0.3,0.9-0.3,1.5-0.6,2.3C58.9,122.7,58.5,122.7,58.2,122.7z"/>
					<path fill="#FAC1AA" d="M36.2,44.6c1.1,0.9,1.5,2.1,1.4,3.6C36.1,47.3,36.2,45.9,36.2,44.6z"/>
					<path fill="#E7D0AB" d="M56.5,125.2c0-1.1,0.2-2.2,1.6-2.5C58,123.8,57.9,124.9,56.5,125.2z"/>
					<path fill="#E7D0AB" d="M116.8,110.4c-0.6,0.2-1.3,0.5-1.9,0.7c-0.1-1.6,1-1.4,2-1.4C116.9,109.9,116.9,110.2,116.8,110.4z"/>
					<path fill="#E7D0AB" d="M116.9,109.7c0-0.9,0.5-1.3,1.4-1.4C118.2,109.2,117.8,109.7,116.9,109.7z"/>
					<path fill="#F0A385" d="M95.9,99.5c0,0.2,0,0.4,0,0.7c-0.6,0-1.3-0.1-1.9-0.1C94.5,99.4,95.2,99.6,95.9,99.5z"/>
					<path fill="#FAC1AA" d="M131.2,33.8c-0.7-0.3-0.7-0.9-0.7-1.5C130.9,32.7,131.2,33.2,131.2,33.8z"/>
					<path fill="#FAC1AA" d="M129.9,31.8c-0.6,0.1-1.2,0-1.5-0.7C129.1,31,129.6,31.3,129.9,31.8z"/>
					<path fill="#FAC1AA" d="M129.8,44.7c0-0.6,0.1-1.1,0.7-1.4C130.5,43.9,130.3,44.4,129.8,44.7z"/>
					<path fill="#FAC1AA" d="M128.3,46.8c0.1-0.6,0.1-1.1,0.8-1.4C129.2,46.1,129.1,46.6,128.3,46.8z"/>
					<path fill="#FAC1AA" d="M137.9,115.8c0.3-0.6,0.8-0.7,1.4-0.7C139,115.8,138.5,115.9,137.9,115.8z"/>
					<path fill="#FAC1AA" d="M37.6,48.1c0.6,0.3,0.7,0.8,0.7,1.4C37.8,49.2,37.6,48.7,37.6,48.1z"/>
					<path fill="#F0A385" d="M125.7,50.9c0-0.6,0.1-1.2,0.7-1.5C126.5,50.1,126.2,50.5,125.7,50.9z"/>
					<path fill="#FAC1AA" d="M67.4,139.4c0.1-0.3,0.3-0.8,0.3-0.8c0.6,0.1,0.4,0.6,0.2,0.9C67.8,139.6,67.6,139.5,67.4,139.4z"/>
					<path fill="#FAC1AA" d="M41.7,52.9c0.2,0,0.4-0.1,0.6-0.1c0,0.5,0,0.9,0,1.4C41.8,53.9,41.6,53.5,41.7,52.9z"/>
					<path fill="#F0A385" d="M122.3,54.2c0.2-0.2,0.5-0.5,0.7-0.7C122.8,53.7,122.5,54,122.3,54.2z"/>
					<path fill="#FAC1AA" d="M128.4,31.1c-0.2-0.2-0.5-0.5-0.7-0.7C128,30.7,128.2,30.9,128.4,31.1z"/>
					<path fill="#F0A385" d="M123,53.5c0.2-0.2,0.5-0.5,0.7-0.7C123.5,53.1,123.2,53.3,123,53.5z"/>
					<path fill="#E7D0AB" d="M56,125.2c0.2-0.1,0.4-0.1,0.5,0c-0.1,0.2-0.2,0.4-0.3,0.5C56.2,125.5,56.1,125.4,56,125.2z"/>
					<path fill="#F0A385" d="M123.7,52.9c0.2-0.2,0.5-0.5,0.7-0.7C124.1,52.4,123.9,52.6,123.7,52.9z"/>
					<path fill="#FAC1AA" d="M41,52.2c0.2,0.2,0.4,0.4,0.7,0.7C41.3,52.8,41,52.6,41,52.2z"/>
					<path fill="#E7D0AB" d="M119.6,107c0.3-0.2,0.5-0.5,0.8-0.7C120.1,106.5,119.8,106.8,119.6,107z"/>
					<path fill="#FAC1AA" d="M129.1,45.4c0.2-0.2,0.5-0.5,0.7-0.7C129.6,44.9,129.3,45.2,129.1,45.4z"/>
					<path fill="#E7D0AB" d="M118.9,107.7c0.2-0.2,0.5-0.5,0.7-0.7C119.4,107.2,119.1,107.4,118.9,107.7z"/>
					<path fill="#FAC1AA" d="M135.1,107c-0.2,0.2-0.5,0.5-0.7,0.7C134.7,107.4,134.9,107.2,135.1,107z"/>
					<path fill="#E7D0AB" d="M118.2,108.4c0.2-0.2,0.5-0.5,0.7-0.7C118.7,107.9,118.5,108.1,118.2,108.4z"/>
					<path fill="#F0A385" d="M126.4,49.5c0.2-0.2,0.5-0.5,0.7-0.7C126.8,49,126.6,49.2,126.4,49.5z"/>
					<path fill="#FAC1AA" d="M38.3,49.5c0.2,0.2,0.5,0.5,0.7,0.7C38.8,49.9,38.5,49.7,38.3,49.5z"/>
					<path fill="#F0A385" d="M124.3,52.2c0.3-0.2,0.6-0.5,0.9-0.7C124.9,51.7,124.6,51.9,124.3,52.2z"/>
					<path fill="#FAC1AA" d="M39,50.1c0.2,0.2,0.5,0.5,0.7,0.7C39.4,50.6,39.2,50.4,39,50.1z"/>
					<path fill="#FAC1AA" d="M39.7,50.8c0.2,0.2,0.4,0.4,0.7,0.7C39.9,51.5,39.7,51.2,39.7,50.8z"/>
					<path fill="#FAC1AA" d="M40.4,51.5c0.2,0.2,0.4,0.4,0.7,0.7C40.6,52.2,40.4,51.9,40.4,51.5z"/>
					<path fill="#F4F6F6" d="M83.1,144.2c0.5-2.6,0.8-5.5,2.2-8.1c0.9-1.7,2.3-2.8,4.4-2.5c2.2,0.3,2.8,2.1,3.1,3.9
						c0.8,5-2.5,10-6.6,10.1C83.6,147.7,83,147,83.1,144.2z"/>
					<path fill="#FDF6EA" d="M83.9,128.4c1.3-4.8,2.3-8.9,3.5-13c0.5-1.7,1.4-3.3,2.3-4.9c0.3-0.7,0.8-1.6,1.7-1.4
						c1.1,0.3,0.8,1.5,0.8,2.3C92,114.9,87.2,125,83.9,128.4z"/>
					<path fill="#FDF6EA" d="M110,140.1c-1.2,0-1.2-0.8-1-1.6c0.4-2.1,1.1-4.1,2.5-5.8c1.5-1.8,3-1.4,3.7,0.7
						C116,136,112.7,140.3,110,140.1z"/>
					<path fill="#FDF6EA" d="M39,134.4c0,2.2-3.3,5.7-5.5,5.7c-1,0-1.2-0.5-1-1.3c0.4-2.3,1.1-4.6,3.1-6.2c0.8-0.6,1.6-0.9,2.5-0.3
						C38.8,132.8,39,133.5,39,134.4z"/>
					<path fill="#333333" d="M114.1,71.8c1.4,0.2,1.3,0.7,0.7,1.8c-1.7,3.2-5.4,4.5-10.7,3.5c-1.3-0.3-2.6-0.4-4-0.6
						C93.9,75.8,92,74,90.4,68c-0.6-2.3-1.3-4.5-2-6.8c-0.7-2.2-1.8-3.7-4.5-3.7c-2.6,0-3.9,1-4.7,3.4c-0.6,2.1-1.6,4.2-2.5,6.3
						c-1.7,3.8-3.9,6.6-8.7,6.8c-2.2,0.1-4.4,0.5-6.7,0.5c-5.5,0.2-9.4-2.1-11.4-7.2c-1.1-2.7-2-5.5-2.8-8.3
						c-0.4-1.2-0.7-2.4-1.6-3.3c-0.8-0.8-2.5-1.3-1.6-2.9c0.7-1.2,2.1-0.7,3.1-0.6c5.8,0.4,11.4-0.8,17.2-0.8
						c5.4,0.1,10.8,0.8,15.9,2.7c4.6,1.7,9.1,0.1,13.6-0.3c7.5-0.7,14.8,0.1,21.9,2.5c1,0.4,2.1,0.8,2.7,1.9
						c0.7,0.9,1.3,0.9,1.9-0.1c0.7-1.1,1.8-1.3,3-1.2c1,0.1,1.3,0.8,1.6,1.5c0.3,0.8-0.2,1.4-0.8,1.6c-2.9,0.9-4,3.4-5.1,5.9
						c-0.6,1.3-1.5,2-2.9,1.6c0.2-3,1.8-6.5-2.4-8.1c-6.5-2.5-13.2-2.7-19.9-1.1c-1.6,0.4-2.2,1.3-2.1,2.9c0.5,8,3.8,11.6,11.7,12.6
						c1.1,0.1,2.2,0.3,3.4,0.4C109.4,74.7,112.1,74.1,114.1,71.8z M63,71.3c8.3-0.1,11.6-2.8,13.2-10.4c0.4-1.7,0.2-3.1-1.7-3.8
						c-6.4-2.3-12.9-3-19.6-1.4c-2.4,0.6-3.7,2.2-3.6,4.9c0.1,8,2.4,10.5,10.3,10.7C62.1,71.3,62.6,71.3,63,71.3z"/>
					<path fill="#B88341" d="M57.3,47.4c1.9-4.1,5.2-6.8,9.2-8.3c13.6-5.1,27.2-5.5,40,2.2c4.7,2.8,7.9,7.3,8.9,12.9
						c-4-0.6-8.1-1.3-12.1-1.9c-0.2-0.7-0.7-1.1-1.3-1.5c-7.2-4.6-15.3-6.2-23.7-6.8C71.2,43.5,64.2,45,57.3,47.4z"/>
					<path fill="#B07434" d="M64.4,76.9c-0.1-0.3-0.3-0.7-0.4-1C72.4,76.2,77.4,72,79.5,64c0.3-1.1,0.8-2.1,1.2-3.2
						c0.5-1.3,1.3-2,2.8-1.9c1.5,0,2.6,0.4,3.3,1.8c1.2,2.3,1.9,4.9,2.2,7.4c0.9,5.9,4.2,8.9,10,9.6c1.1,0.1,2.2,0.3,4.1,0.6
						c-3.2,2-6.3,2-9.2,2.9c-1.5,0.5-3.3,0.2-4.6,1.5c-0.4,0.1-0.9,0.2-1.3,0.3c-4.4-0.5-8.8,0.1-13.1,0.7c-0.2-0.1-0.4-0.2-0.5-0.4
						c-0.6-1-1.5-1.5-2.7-1.4c-2.3-0.8-4-2.7-6.1-3.9C65.1,77.6,64.7,77.3,64.4,76.9z M82.5,69.8c-1.8-0.2-3.2,0.7-3.2,2.4
						c0.1,2,3.3,0.2,3.6,2.3c0.4-1.8,3.4-0.4,3.4-2.4C86.2,70.1,84.4,69.8,82.5,69.8z"/>
					<path fill="#F4F6F6" d="M114.1,71.8c-2,2.4-4.7,2.9-7.6,2.5c-1.1-0.2-2.2-0.3-3.4-0.4c-7.9-1-11.2-4.5-11.7-12.6
						c-0.1-1.7,0.6-2.6,2.1-2.9c6.8-1.5,13.4-1.4,19.9,1.1c4.2,1.6,2.6,5.1,2.4,8.1C115.3,69,114.7,70.4,114.1,71.8z M102.7,65.5
						c0.4,1.6,0.2,3.9,2.2,4c1.6,0.1,1.6-1.9,1.6-3.2c-0.1-1.5-0.3-3.6-2-3.8C102.8,62.3,102.9,64.2,102.7,65.5z"/>
					<path fill="#B47C3A" d="M57.3,47.4c6.8-2.4,13.9-3.9,21.1-3.4c8.3,0.6,16.4,2.2,23.7,6.8c0.6,0.4,1.1,0.8,1.3,1.5
						c-0.9,0.2-1.7,0.4-2.6,0.4C96.8,53,93,52.6,89,53.3c-3.6,0.7-7.3,0.1-10.9-1.2c-7-2.5-14.3-2.5-21.6-1.5c0-0.5,0-1.1,0-1.6
						C56.6,48.4,56.7,47.8,57.3,47.4z"/>
					<path fill="#F9EAD4" d="M87.9,83c0.4-0.1,0.9-0.2,1.3-0.3c2.4,2.1,0.7,4.9,1.3,7.3c0,1.6-1.5,2.3-2.1,3.5c-1.9,1-4.4,0.3-6.1,2
						c-3.1-1-5.5-2.6-5.9-6.1c-0.1-0.2-0.2-0.4-0.4-0.7c-0.3-0.9-0.5-1.9-0.8-2.8c0.5-1.9,2-0.9,3.1-1.1C81.5,84.2,85,85,87.9,83z"
						/>
					<path fill="#333333" d="M92.5,90.5c-0.4-4.7,4.4-9.5,9.5-9.7c1.1,0,1.5,0.4,1,1.4c-1.5,2.8-3,5.5-4.5,8.3
						c-0.7,1.3-2.1,1-3.3,1.2c0,0,0.1,0,0.1,0c-0.3-0.2-0.5-0.5-0.8-0.7l0,0.2c-0.2-0.9-0.7-1-1.3-0.3
						C92.9,90.6,92.7,90.5,92.5,90.5z"/>
					<path fill="#F0A385" d="M92.5,90.5c0.2,0.1,0.5,0.2,0.7,0.2c0.4,0.1,0.8,0.2,1.3,0.3c0,0,0-0.2,0-0.2c-0.1,0.6,0.4,0.7,0.8,0.7
						c0,0-0.1,0-0.1,0c0.6,1.2,2,1.5,2.9,2.3c0,1.4-0.4,2.7-1.4,3.7c0.4-3-1.3-4-3.8-4.1c-1.4-0.1-2.9,0-4.3,0
						c0.6-1.2,2.1-1.9,2.1-3.5C91.2,90.1,91.8,90.3,92.5,90.5z"/>
					<path fill="#B07434" d="M108.1,82.6c-1.2,0-2.4,0-3.6,0c1.1-4.6,4.9-4.2,8.3-4.7c-0.3,0.7-0.9,1.3-1.7,1.3
						c-2.1,0.1-2.5,1.4-2.4,3.1C108.5,82.4,108.3,82.5,108.1,82.6z"/>
					<path fill="#926635" d="M120.2,58.1c-0.6,1-1.2,1-1.9,0.1C119,58.2,119.6,58.2,120.2,58.1z"/>
					<path fill="#B88341" d="M115.5,54.2c0.2,0.2,0.5,0.5,0.7,0.7C115.8,54.8,115.4,54.8,115.5,54.2z"/>
					<path fill="#191511" d="M75.2,85.9c0.3,0.9,0.5,1.9,0.8,2.8c-2.4-3-5.4-4.7-9.7-3.7c2,2.9,3,6,3.9,9c0.4,1.2,1.2,1.5,2.3,1.5
						c-0.9,0.8-0.4,2.7-2.3,2.6c-0.7-1.8-1.4-3.6-2-5.4c-0.8-4-2.8-7.1-6.2-9.4c2.7,0,5.4-0.1,8.1-0.1c0.4,0,0.9,0,1.3,0
						c0.9,0,1.8,0.1,2.8,0.1c0.1,0.2,0.3,0.3,0.5,0.4C75.1,84.4,74.5,85.3,75.2,85.9z"/>
					<path fill="#F0A385" d="M70.3,98.1c1.8,0.1,1.4-1.8,2.3-2.6c0.6-0.7,1.1-1.4,1.7-2.1c0.5-0.3,1.1-0.5,0.9-1.3L75,92.2
						c0.7,0.1,0.5-0.4,0.5-0.8c0.3-0.7,0.6-1.4,0.9-2.1c0.4,3.5,2.8,5.2,5.9,6.1c-3.5,1.3-7.1,2.4-10.2,4.8c-0.4,0-0.9,0-1.3,0
						C70.6,99.5,70.1,98.9,70.3,98.1z"/>
					<path fill="#F9EAD4" d="M71.5,83.2c-0.4,0-0.9,0-1.3,0c-3.7-1.4-7.5-2.3-11.5-1.2c-1.9-0.5-1.3-1.4-0.1-1.8
						c1.4-0.5,3-0.7,4.6-0.9c1-0.1,2.1,0.2,2.3-1.3c2.1,1.2,3.8,3.1,6.1,3.9C71.5,82.3,71.5,82.8,71.5,83.2z"/>
					<path fill="#FBD0BD" d="M70.3,98.1c-0.2,0.8,0.3,1.4,0.6,2.1c-2.5,1.6-3.1-0.8-4-2c-1.3-2.1-0.6-4,1.4-5.4
						C68.9,94.5,69.6,96.3,70.3,98.1z"/>
					<path fill="#E7D0AB" d="M58.7,81.9c4-1,7.8-0.1,11.5,1.2c-2.7,0-5.4,0.1-8.1,0.1C61,82.6,59.2,83.8,58.7,81.9z"/>
					<path fill="#F0A385" d="M72.2,100.2c0.2,0.2,0.5,0.5,0.7,0.7C72.7,100.7,72.4,100.5,72.2,100.2z"/>
					<path fill="#FAC1AA" d="M118.2,54.2c-0.2,0-0.5,0-0.7,0c-0.7-1.8-1.4-3.5-2.1-5.3c-0.1-3.5,0.7-6.8,2.6-9.8
						c0.8-1.3,2.1-2.3,2.2-4l0,0c0.7-0.4,0.8-0.9,0.1-1.3c0.2-0.5,0.5-0.9,0.7-1.4c0.9-0.4,1.4-1.5,2.6-1.3c0,0.1,0,0.3,0,0.3
						c4.6,4.6,2.1,8.7-0.9,12.7C120.6,47.3,119.1,50.6,118.2,54.2z"/>
					<path fill="#F0A385" d="M96.6,97.5c-0.1,0.7,0,1.5-0.7,2.1C95.9,98.8,95.8,98,96.6,97.5z"/>
					<path fill="#FBEFDD" d="M121,32.5c-0.2,0.5-0.5,0.9-0.7,1.4c0,0.4,0,0.9-0.1,1.3c0,0,0,0,0,0c-1.5-0.1-2,1.2-2.7,2.1
						c-1.9,2.2-3.2,4.8-5.4,6.7c-1.4-1.4-2.9-2.7-4.3-4.1c1.9-1.1,4.3-1.5,5.7-3.4c1.9-0.6,3.6-1.6,4.7-3.4
						C119.2,33,120.1,32.7,121,32.5z"/>
					<path fill="#F0A385" d="M112.1,44.1c2.2-1.9,3.6-4.5,5.4-6.7c0.8-0.9,1.2-2.2,2.7-2.1c-0.2,1.6-1.4,2.7-2.2,4
						c-1.9,3-2.7,6.2-2.6,9.8C114.3,47.3,113.2,45.7,112.1,44.1z"/>
					<path fill="#F4F6F6" d="M63,71.3c-0.5,0-0.9,0-1.4,0c-7.9-0.2-10.2-2.7-10.3-10.7c0-2.8,1.2-4.3,3.6-4.9
						c6.6-1.6,13.2-0.9,19.6,1.4c1.9,0.7,2,2.1,1.7,3.8C74.6,68.5,71.3,71.2,63,71.3z M64.2,62.3c-0.4-0.8,0.1-2.8-1.5-2.6
						c-2.2,0.3-2.1,2.6-2.2,4.3c0,1.1-0.1,3,1.6,2.7C64,66.3,64,64.2,64.2,62.3z"/>
					<path fill="#F0A385" d="M82.5,69.8c1.9-0.1,3.8,0.2,3.8,2.4c0.1,2-2.9,0.6-3.4,2.4c-0.4-2.2-3.6-0.3-3.6-2.3
						C79.3,70.5,80.7,69.6,82.5,69.8z"/>
					<path fill="#333333" d="M75.2,85.9c-0.8-0.6-0.2-1.5-0.4-2.2c4.4-0.6,8.7-1.2,13.1-0.7c-2.9,2.1-6.4,1.2-9.6,1.8
						C77.2,84.9,75.7,84,75.2,85.9z"/>
					<path fill="#E7D0AB" d="M71.5,83.2c0-0.4,0-0.9,0.1-1.3c1.2,0,2.1,0.4,2.7,1.4C73.3,83.3,72.4,83.2,71.5,83.2z"/>
					<path fill="#191511" d="M102.7,65.5c0.3-1.3,0.1-3.3,1.8-3c1.7,0.2,1.9,2.3,2,3.8c0.1,1.3,0,3.3-1.6,3.2
						C102.9,69.4,103.1,67.1,102.7,65.5z"/>
					<path fill="#333333" d="M76.4,89.4c-0.3,0.7-0.6,1.4-0.9,2.1c-0.2,0.3-0.4,0.5-0.5,0.8c0,0,0.2-0.1,0.2-0.1
						c-0.7,0.1-0.8,0.7-0.9,1.3c-0.6,0.7-1.1,1.4-1.7,2.1c-1.1,0-2-0.3-2.3-1.5c-0.9-3.1-2-6.1-3.9-9c4.3-0.9,7.3,0.7,9.7,3.7
						C76.2,88.9,76.3,89.1,76.4,89.4z"/>
					<path fill="#191511" d="M94.5,91c-0.4-0.1-0.8-0.2-1.3-0.3C93.8,90,94.2,90.1,94.5,91z"/>
					<path fill="#191511" d="M95.2,91.5c-0.4-0.1-0.9-0.1-0.8-0.7C94.7,91,94.9,91.3,95.2,91.5z"/>
					<path fill="#191511" d="M74.2,93.5c0.1-0.6,0.2-1.2,0.9-1.3C75.3,92.9,74.7,93.2,74.2,93.5z"/>
					<path fill="#191511" d="M75,92.2c0.2-0.3,0.4-0.5,0.5-0.8C75.5,91.8,75.6,92.3,75,92.2z"/>
					<path fill="#F0A385" d="M120.2,35.2c0-0.4,0-0.9,0.1-1.3C121,34.4,120.9,34.8,120.2,35.2z"/>
					<path fill="#191511" d="M64.2,62.3c-0.2,2-0.2,4-2.1,4.4c-1.7,0.3-1.6-1.5-1.6-2.7c0-1.8,0-4,2.2-4.3
						C64.3,59.5,63.8,61.5,64.2,62.3z"/>
				</g>
			</g>
		</g>
		<path fill="none" stroke="#3FA9F5" stroke-width="7" stroke-miterlimit="10" d="M163.9,94.9c0,13.3-0.1,26.7,0.1,40
			c0.1,4.4-1.3,7.3-5.4,9.6c-22.9,13-45.8,26.2-68.5,39.6c-4.6,2.7-8.3,2.6-12.8-0.1c-22.8-13.3-45.7-26.4-68.6-39.5
			c-3.5-2-5.2-4.6-5.1-8.8c0.1-27.3,0.1-54.7,0-82c0-3.9,1.4-6.4,4.9-8.4C31.3,32.1,54.2,19,76.9,5.6c4.9-2.9,9.1-2.7,13.9,0.2
			c22.7,13.4,45.6,26.6,68.5,39.7c3.4,1.9,4.6,4.3,4.6,8C163.8,67.2,163.9,81,163.9,94.9z"/>
	</g>
</g>
</svg>
