<?xml version="1.0" encoding="utf-8"?>
<!-- Generator: Adobe Illustrator 18.1.0, SVG Export Plug-In . SVG Version: 6.00 Build 0)  -->
<!DOCTYPE svg PUBLIC "-//W3C//DTD SVG 1.1//EN" "http://www.w3.org/Graphics/SVG/1.1/DTD/svg11.dtd">
<svg version="1.1" id="Layer_1" xmlns="http://www.w3.org/2000/svg" xmlns:xlink="http://www.w3.org/1999/xlink" x="0px" y="0px"
	 viewBox="0 0 580 120" enable-background="new 0 0 580 120" xml:space="preserve">
<g id="hcPXFV.tif">
	<g>
		<g>
			<path fill="#FDFDFD" d="M0.7,40c0-12.9,0-25.8,0-38.7c145.3,0,290.7,0,436-0.1c2.7,0,3.4,0.6,3.4,3.4c-0.1,32.9-0.1,65.8,0,98.7
				c0,2.2-0.4,2.6-2.6,2.6c-144.7-0.1-289.5-0.1-434.2-0.1c-0.7,0-2.2,1.2-2.6-0.7c0.3-0.1,0.7-0.2,1-0.3c3.5,0,7.1-0.2,10.6,0
				c2.7,0.2,3.2-0.8,3.2-3.3c-0.1-12.4,0-24.8,0-37.3l0.3,0.1l0.2-0.1c5.1,7.7,10.3,15.3,15.4,23c2.2,3.3,2.2,3.3,4.5-0.1
				c5.1-7.8,10.3-15.5,15.4-23.3c0.2,0,0.4,0.1,0.6,0.1c0,1.2,0,2.3,0,3.5c0,8.9-0.1,17.8,0,26.7c0,3.5-1.6,8,0.7,10.1
				c2.3,2,6.8,0.3,10.3,0.6c2.8,0.3,3.5-0.7,3.4-3.4c-0.1-16.4-0.1-32.9-0.1-49.3c0-3.9,1.3-9-0.6-11.3c-2.2-2.6-7.6-0.4-11.5-0.9
				c-2.6-0.3-4.1,0.6-5.5,3c-4.7,8-9.8,15.8-14.9,24c-0.9-1.4-1.6-2.4-2.3-3.4c-4.4-7.1-8.9-14.2-13.3-21.4
				c-0.8-1.3-1.5-2.3-3.3-2.2C10.5,40,6,39.9,1.5,40C1.2,40,1,40,0.7,40z M383.9,72.1c0,7.1-0.1,14.1,0,21.2
				c0.1,3.7-1.7,8.9,0.8,10.7c2.6,1.9,7.5,0.5,11.3,0.7c2,0.1,2.4-0.7,2.4-2.5c-0.1-5.2,0-10.5-0.1-15.7c0-1.9,0.4-2.5,2.5-2.8
				c6-0.7,10.6,0.7,13,6.8c0.5,1.3,1.5,2.5,2.4,3.7c2.5,3.5,3.9,8.5,7.5,10.1c3.6,1.6,8.3,0.5,12.6,0.4c0.9,0,2.1,0.5,2.7-0.4
				c0.7-1.2-0.5-2-1-2.9c-4-5.9-8-11.9-12.1-17.8c-0.9-1.3-1.5-2.1,0.6-3.2c10.9-5.3,13.1-14.9,11.1-25.1
				c-1.9-9.3-10.3-15.3-21.2-15.5c-9.7-0.2-19.5,0.1-29.2-0.1c-2.9-0.1-3.4,0.9-3.3,3.5C384,52.9,383.9,62.5,383.9,72.1z
				 M222.1,72.1c0,9.9,0.1,19.7-0.1,29.6c0,2.4,0.6,3.1,3,3.1c12.1-0.1,24.1,0,36.2-0.1c3.3,0,7.6,1.4,9.5-0.6
				c1.9-2,0.3-6.3,0.6-9.5c0.2-2.3-0.6-2.9-2.8-2.8c-7.3,0.1-14.6,0.1-21.9,0c-3.4-0.1-7.8,1.5-9.8-0.7c-2-2.2-0.3-6.5-0.6-9.9
				c-0.2-2.4,0.9-2.8,3-2.8c5.8,0.1,11.7,0.1,17.5,0c3.3,0,7.6,1.4,9.5-0.6c2-2.1,0.3-6.5,0.6-9.9c0.2-2-0.6-2.4-2.5-2.4
				c-6.1,0.1-12.2,0.1-18.3,0c-3.1,0-7.4,1.1-9.2-0.5c-2.1-1.9-0.4-6.2-0.7-9.4c-0.3-2.8,1-3.2,3.4-3.1c7.3,0.1,14.6,0.1,21.9,0
				c3,0,6.9,1.3,8.8-0.6c1.9-1.9,0.3-5.8,0.6-8.8c0.2-2.4-0.4-3.4-3.1-3.3c-14.2,0.1-28.5,0.1-42.7,0c-2.5,0-3,0.8-3,3.1
				C222.2,52.6,222.1,62.3,222.1,72.1z M83.9,72.1c0,9.7,0.1,19.5-0.1,29.2c-0.1,2.9,0.9,3.4,3.5,3.4c11.9-0.1,23.9,0,35.8-0.1
				c3.2,0,7.7,1.5,9.4-0.7c1.6-2,0.3-6.3,0.6-9.6c0.2-2.4-0.8-2.8-2.9-2.7c-7.3,0.1-14.6,0.1-21.9,0c-3.3,0-7.7,1.1-9.5-0.6
				c-2.3-2.1-0.4-6.7-0.8-10.1c-0.2-2.1,0.6-2.7,2.7-2.7c6,0.1,11.9,0.1,17.9,0c3.3-0.1,7.7,1.4,9.4-0.6c1.6-2,0.4-6.3,0.6-9.5
				c0.1-2-0.5-2.7-2.6-2.7c-6.1,0.1-12.2,0.1-18.3,0c-3.1,0-7.3,1.4-9.1-0.6c-2-2.1-0.3-6.3-0.7-9.5c-0.3-2.5,0.8-3,3.1-3
				c7.6,0.1,15.1,0.1,22.7,0c2.9,0,6.7,1.3,8.5-0.5c1.9-1.9,0.3-5.8,0.7-8.8c0.4-2.7-0.6-3.5-3.4-3.4c-14.1,0.1-28.3,0.2-42.4,0
				c-2.9,0-3.3,0.9-3.3,3.5C84,52.9,83.9,62.5,83.9,72.1z M170.2,78.7c0,5.1-0.1,10.2,0,15.3c0.1,3.5-1.6,8.1,0.7,10.1
				c2,1.7,6.5,0.3,9.9,0.6c3.1,0.3,3.9-0.8,3.8-3.8c-0.2-15,0-29.9-0.1-44.9c0-2.3,0.5-3.2,3-3.1c4.7,0.2,9.5,0,14.2,0.1
				c1.8,0,2.7-0.3,2.6-2.4c-0.1-2.9-0.1-5.8,0-8.8c0-1.6-0.5-2.1-2.1-2.1c-16.5,0-33.1,0-49.6,0c-1.6,0-2.1,0.4-2.1,2.1
				c0.1,2.9,0.1,5.8,0,8.8c-0.1,2,0.6,2.5,2.5,2.4c4.6-0.1,9.3,0.2,13.9-0.1c2.9-0.2,3.4,0.9,3.4,3.5
				C170.1,63.9,170.2,71.3,170.2,78.7z M275.7,14.6c0.4,0.5,0.7,0.9,1,1.2c25.4,27,50.8,54,76.2,81c2.3,2.5,4.7,2.8,6.7,0.9
				c2-2,1.7-4.4-1-6.9c-26.5-25-53.1-50-79.7-75C278.1,15.2,277.4,14.1,275.7,14.6z M302.2,21.4c0.6,1,1,1.6,1.4,2.1
				c18.6,20.1,37.1,40.2,55.7,60.3c2.5,2.7,5,3.1,6.9,1.2c2-1.9,1.6-4.2-1.1-6.9c-0.3-0.3-0.7-0.7-1.1-1c-19.5-18-39-36-58.5-54
				C304.9,22.4,304.2,21.3,302.2,21.4z M283,40.3c-0.2,2.7,1.3,3.4,2.2,4.4c11.3,12.4,22.7,24.7,34.1,37c6.5,7.1,13,14.1,19.6,21.2
				c2.2,2.4,6.3,3.2,7.6,1.4c2.1-2.8,0.5-4.9-1.6-6.9c-16.6-15.3-33.2-30.7-49.9-46C291.2,47.7,287.3,44.3,283,40.3z M327.5,30.7
				c12,13,23.9,25.8,35.7,38.6c1.5,1.6,3.1,3.3,5.2,1.3c2.1-2,0.4-3.7-1.2-5.2c-12.1-11.2-24.3-22.4-36.4-33.7
				C330,31.1,329.4,30.1,327.5,30.7z M288.9,63.5c0.2,0.4,0.3,0.7,0.5,0.9c12,13,24,26.1,36,39.1c1.6,1.7,3.7,2.6,5.3,0.8
				c1.6-1.8,0-3.5-1.5-4.9c-12.4-11.4-24.8-22.9-37.2-34.3C291.2,64.3,290.6,63,288.9,63.5z M348.6,38.3c4.7,5.1,9.4,10.2,14.1,15.3
				c0.7,0.7,1.5,0.9,2.2,0.1c0.9-1,0.3-1.8-0.5-2.5c-3.6-3.3-7.1-6.6-10.7-9.8C352.3,40.1,351.1,38.3,348.6,38.3z M299.7,84.9
				c-0.3,0.3-0.6,0.6-0.9,0.9c4.4,4.8,8.8,9.6,13.3,14.4c0.7,0.8,1.6,1.3,2.5,0.3c0.9-1,0.2-1.8-0.5-2.5c-0.8-0.8-1.6-1.5-2.4-2.2
				C307.7,92.2,303.7,88.6,299.7,84.9z M280.2,38.8c0.1-0.1,0.3-0.3,0.4-0.4c-0.2-0.2-0.3-0.4-0.5-0.4c-0.4-0.1-0.7,0.1-0.5,0.5
				C279.7,38.5,280,38.6,280.2,38.8z M299.2,18.3c0.1-0.1,0.3-0.3,0.4-0.4c-0.2-0.2-0.3-0.4-0.5-0.4c-0.4-0.1-0.7,0.1-0.5,0.5
				C298.7,18.1,299,18.2,299.2,18.3z M280.9,39.5c0.1,0.1,0.2,0.3,0.2,0.4c0.1-0.1,0.2-0.2,0.2-0.2c0-0.2-0.1-0.3-0.2-0.4
				C281,39.3,281,39.4,280.9,39.5z M301.8,19.8c-0.1-0.1-0.2-0.2-0.2-0.2c-0.1,0.1-0.2,0.3-0.2,0.4c0,0.1,0.1,0.1,0.2,0.2
				C301.6,20.1,301.7,20,301.8,19.8z"/>
			<path fill="#C1C1C2" d="M0.7,40c0.3,0,0.5,0,0.8,0c0,20.5,0,41,0,61.5c0,1.1,0.2,2.2,0.3,3.2c-0.3,0.1-0.7,0.2-1,0.3
				C0.7,83.3,0.7,61.7,0.7,40z"/>
			<path fill="#2A2A2E" d="M1.8,104.7c-0.1-1.1-0.3-2.2-0.3-3.2c0-20.5,0-41,0-61.5c4.5,0,9,0,13.5-0.2c1.8-0.1,2.5,0.9,3.3,2.2
				c4.4,7.1,8.8,14.3,13.3,21.4c0.6,1,1.3,2,2.3,3.4c5.1-8.2,10.1-16,14.9-24c1.4-2.3,2.9-3.2,5.5-3c3.9,0.4,9.3-1.7,11.5,0.9
				c2,2.2,0.6,7.4,0.6,11.3c0,16.4-0.1,32.9,0.1,49.3c0,2.7-0.7,3.7-3.4,3.4c-3.5-0.3-8,1.4-10.3-0.6c-2.3-2.1-0.7-6.7-0.7-10.1
				c-0.1-8.9,0-17.8,0-26.7c0-1.2,0-2.3,0-3.5c-0.2,0-0.4-0.1-0.6-0.1C46.2,71.4,41.1,79.2,36,86.9c-2.3,3.4-2.3,3.4-4.5,0.1
				c-5.1-7.7-10.3-15.3-15.4-23c-0.2-0.2-0.3-0.3-0.5-0.5c0,0.2,0,0.4,0,0.6c0,12.4-0.1,24.8,0,37.3c0,2.5-0.5,3.5-3.2,3.3
				C8.8,104.5,5.3,104.7,1.8,104.7z"/>
			<path fill="#2B2B2F" d="M383.9,72.1c0-9.6,0.1-19.2-0.1-28.8c0-2.6,0.4-3.6,3.3-3.5c9.7,0.2,19.5,0,29.2,0.1
				c10.9,0.2,19.3,6.2,21.2,15.5c2.1,10.3-0.1,19.8-11.1,25.1c-2.1,1-1.5,1.8-0.6,3.2c4.1,5.9,8.1,11.8,12.1,17.8
				c0.6,0.8,1.8,1.7,1,2.9c-0.6,0.9-1.8,0.4-2.7,0.4c-4.2,0-9,1.2-12.6-0.4c-3.6-1.6-5-6.6-7.5-10.1c-0.8-1.2-1.9-2.3-2.4-3.7
				c-2.4-6.1-7-7.5-13-6.8c-2.1,0.2-2.6,0.8-2.5,2.8c0.1,5.2,0,10.5,0.1,15.7c0,1.8-0.4,2.6-2.4,2.5c-3.9-0.2-8.8,1.2-11.3-0.7
				c-2.5-1.8-0.7-7-0.8-10.7C383.8,86.2,383.9,79.2,383.9,72.1z M398.4,61.2c0,3,0,5.4,0,7.8c0,1.4,0.2,2.3,1.9,2.2
				c5.2-0.3,10.5,0.4,15.7-0.5c4.8-0.9,7.5-4.1,7.6-8.8c0.1-4.7-2.6-8.1-7.5-8.8c-2.9-0.4-5.8-0.4-8.7-0.4c-2.9,0-6.7-1.3-8.4,0.5
				C397.1,55.1,398.6,58.9,398.4,61.2z"/>
			<path fill="#2A2A2E" d="M222.1,72.1c0-9.7,0.1-19.5-0.1-29.2c0-2.3,0.5-3.1,3-3.1c14.2,0.1,28.5,0.1,42.7,0
				c2.7,0,3.4,0.9,3.1,3.3c-0.3,3,1.3,6.9-0.6,8.8c-1.9,1.9-5.8,0.5-8.8,0.6c-7.3,0.1-14.6,0.1-21.9,0c-2.4,0-3.7,0.3-3.4,3.1
				c0.4,3.2-1.4,7.5,0.7,9.4c1.8,1.6,6,0.5,9.2,0.5c6.1,0,12.2,0.1,18.3,0c1.9,0,2.6,0.4,2.5,2.4c-0.3,3.4,1.4,7.7-0.6,9.9
				c-1.9,2-6.2,0.5-9.5,0.6c-5.8,0.1-11.7,0.1-17.5,0c-2.1,0-3.2,0.4-3,2.8c0.3,3.4-1.3,7.7,0.6,9.9c2,2.2,6.4,0.6,9.8,0.7
				c7.3,0.1,14.6,0.1,21.9,0c2.2,0,3.1,0.5,2.8,2.8c-0.3,3.3,1.3,7.5-0.6,9.5c-1.9,2-6.2,0.6-9.5,0.6c-12.1,0.1-24.1,0-36.2,0.1
				c-2.4,0-3.1-0.7-3-3.1C222.2,91.8,222.1,81.9,222.1,72.1z"/>
			<path fill="#2A2A2E" d="M83.9,72.1c0-9.6,0.1-19.2-0.1-28.9c0-2.6,0.4-3.5,3.3-3.5c14.1,0.2,28.3,0.2,42.4,0
				c2.8,0,3.7,0.7,3.4,3.4c-0.4,3,1.3,6.8-0.7,8.8c-1.8,1.8-5.6,0.5-8.5,0.5c-7.6,0.1-15.1,0.1-22.7,0c-2.3,0-3.4,0.5-3.1,3
				c0.3,3.2-1.3,7.4,0.7,9.5c1.8,1.9,6,0.5,9.1,0.6c6.1,0.1,12.2,0.1,18.3,0c2.1,0,2.7,0.6,2.6,2.7c-0.2,3.3,1,7.6-0.6,9.5
				c-1.7,2.1-6.2,0.6-9.4,0.6c-6,0.1-11.9,0.1-17.9,0c-2,0-2.9,0.6-2.7,2.7c0.4,3.5-1.5,8,0.8,10.1c1.8,1.7,6.2,0.6,9.5,0.6
				c7.3,0,14.6,0.1,21.9,0c2.1,0,3.1,0.3,2.9,2.7c-0.3,3.3,1,7.5-0.6,9.6c-1.7,2.1-6.2,0.6-9.4,0.7c-11.9,0.1-23.9,0-35.8,0.1
				c-2.6,0-3.6-0.5-3.5-3.4C84.1,91.6,83.9,81.9,83.9,72.1z"/>
			<path fill="#2C2C30" d="M170.2,78.7c0-7.4-0.1-14.8,0.1-22.3c0.1-2.6-0.5-3.7-3.4-3.5c-4.6,0.3-9.2,0-13.9,0.1
				c-1.9,0.1-2.6-0.5-2.5-2.4c0.1-2.9,0.1-5.8,0-8.8c-0.1-1.6,0.5-2.1,2.1-2.1c16.5,0,33.1,0,49.6,0c1.6,0,2.1,0.5,2.1,2.1
				c-0.1,2.9-0.1,5.8,0,8.8c0.1,2-0.8,2.4-2.6,2.4c-4.7-0.1-9.5,0.1-14.2-0.1c-2.5-0.1-3,0.8-3,3.1c0.1,15,0,29.9,0.1,44.9
				c0,3-0.8,4.1-3.8,3.8c-3.4-0.3-7.9,1.1-9.9-0.6c-2.3-2-0.6-6.6-0.7-10.1C170.1,88.9,170.2,83.8,170.2,78.7z"/>
			<path fill="#E05451" d="M275.7,14.6c1.8-0.5,2.4,0.5,3.2,1.3c26.6,25,53.1,50,79.7,75c2.7,2.5,3,5,1,6.9
				c-1.9,1.9-4.3,1.6-6.7-0.9c-25.4-27-50.8-54-76.2-81C276.3,15.5,276,15.1,275.7,14.6z"/>
			<path fill="#E05451" d="M302.2,21.4c2-0.2,2.7,1,3.5,1.7c19.5,18,39,36,58.5,54c0.4,0.3,0.7,0.7,1.1,1c2.7,2.7,3.1,5,1.1,6.9
				c-1.9,1.9-4.4,1.5-6.9-1.2c-18.6-20.1-37.2-40.2-55.7-60.3C303.2,23.1,302.8,22.4,302.2,21.4z"/>
			<path fill="#E05451" d="M283,40.3c4.4,4,8.2,7.4,12.1,11c16.6,15.3,33.2,30.7,49.9,46c2.2,2,3.7,4.1,1.6,6.9
				c-1.4,1.8-5.4,1-7.6-1.4c-6.5-7-13-14.1-19.6-21.2c-11.4-12.3-22.8-24.6-34.1-37C284.3,43.7,282.8,43,283,40.3z"/>
			<path fill="#E15653" d="M327.5,30.7c1.9-0.6,2.5,0.4,3.3,1.1c12.1,11.2,24.3,22.4,36.4,33.7c1.6,1.5,3.3,3.2,1.2,5.2
				c-2,2-3.7,0.3-5.2-1.3C351.4,56.5,339.5,43.7,327.5,30.7z"/>
			<path fill="#E15754" d="M288.9,63.5c1.7-0.5,2.3,0.9,3.1,1.6c12.4,11.4,24.8,22.9,37.2,34.3c1.6,1.4,3.1,3.2,1.5,4.9
				c-1.6,1.8-3.7,0.9-5.3-0.8c-12-13-24-26.1-36-39.1C289.2,64.1,289.1,63.8,288.9,63.5z"/>
			<path fill="#E25E5B" d="M348.6,38.3c2.5,0,3.7,1.8,5.1,3c3.6,3.2,7.2,6.5,10.7,9.8c0.7,0.7,1.4,1.5,0.5,2.5
				c-0.7,0.8-1.6,0.6-2.2-0.1C358,48.5,353.3,43.4,348.6,38.3z"/>
			<path fill="#E25E5C" d="M299.7,84.9c4,3.6,8,7.2,12,10.9c0.8,0.7,1.6,1.5,2.4,2.2c0.7,0.7,1.4,1.5,0.5,2.5
				c-0.9,1-1.8,0.5-2.5-0.3c-4.4-4.8-8.9-9.6-13.3-14.4C299.1,85.5,299.4,85.2,299.7,84.9z"/>
			<path fill="#E05451" d="M280.2,38.8c-0.2-0.1-0.5-0.2-0.6-0.4c-0.1-0.4,0.2-0.6,0.5-0.5c0.2,0.1,0.3,0.3,0.5,0.4
				C280.5,38.5,280.3,38.6,280.2,38.8z"/>
			<path fill="#E05451" d="M299.2,18.3c-0.2-0.1-0.5-0.2-0.6-0.4c-0.1-0.4,0.2-0.6,0.5-0.5c0.2,0.1,0.3,0.3,0.5,0.4
				C299.5,18,299.3,18.2,299.2,18.3z"/>
			<path fill="#E05451" d="M280.9,39.5c0.1-0.1,0.2-0.2,0.2-0.2c0.1,0.1,0.2,0.3,0.2,0.4c0,0.1-0.1,0.1-0.2,0.2
				C281,39.8,281,39.6,280.9,39.5z"/>
			<path fill="#E05451" d="M301.8,19.8c-0.1,0.2-0.2,0.3-0.3,0.4c-0.1-0.1-0.2-0.2-0.2-0.2c0-0.2,0.1-0.3,0.2-0.4
				C301.6,19.7,301.7,19.7,301.8,19.8z"/>
			<path fill="#C1C1C2" d="M15.6,64.2c0-0.2,0-0.4,0-0.6c0.2,0.2,0.3,0.3,0.5,0.5l-0.2,0.1L15.6,64.2z"/>
			<path fill="#FCFCFC" d="M398.4,61.2c0.2-2.4-1.2-6.1,0.6-7.9c1.8-1.8,5.5-0.5,8.4-0.5c2.9,0,5.9-0.1,8.7,0.4
				c4.9,0.7,7.5,4.1,7.5,8.8c-0.1,4.7-2.8,7.9-7.6,8.8c-5.2,0.9-10.4,0.3-15.7,0.5c-1.8,0.1-2-0.8-1.9-2.2
				C398.4,66.6,398.4,64.2,398.4,61.2z"/>
		</g>
	</g>
</g>
</svg>
