<?xml version="1.0" encoding="utf-8"?>
<!-- Generator: Adobe Illustrator 18.1.0, SVG Export Plug-In . SVG Version: 6.00 Build 0)  -->
<!DOCTYPE svg PUBLIC "-//W3C//DTD SVG 1.1//EN" "http://www.w3.org/Graphics/SVG/1.1/DTD/svg11.dtd">
<svg version="1.1" id="Layer_1" xmlns="http://www.w3.org/2000/svg" xmlns:xlink="http://www.w3.org/1999/xlink" x="0px" y="0px"
	 viewBox="0 0 616 460" enable-background="new 0 0 616 460" xml:space="preserve">
<g id="o3vnbJ.tif">
	<g>
		<path fill="#46483E" d="M457.6,107.2c0,24-0.1,47.9,0.1,71.9c0.1,5.6-1.7,9-6.6,11.8c-15.7,8.7-31.3,17.8-46.8,26.9
			c-4.2,2.5-7.8,2.8-12.2,0.2c-16-9.4-32-18.6-48.1-27.7c-3.7-2.1-5.6-4.7-5.6-9.2c0.2-18.8,0.2-37.6,0-56.4c0-4.7,1.8-7.5,5.9-9.8
			c15-8.4,30.1-16.8,44.7-25.9c6.3-3.9,11.3-4.1,17.7-0.2c10.7,6.7,10.9,6.4,10.9-6.6c0-22.4,0-44.8,0-67.2c0-8,1.5-9,8.5-5.2
			c8.6,4.6,17,9.6,25.6,14.2c4.4,2.3,6,5.6,5.9,10.6C457.5,58.8,457.6,83,457.6,107.2z"/>
		<path fill="#8BC74B" d="M298.8,151.9c0,9-0.2,18,0.1,27.1c0.2,4.9-1.4,8.1-5.9,10.6c-15.7,8.8-31.3,17.8-46.9,26.9
			c-4.5,2.6-8.4,2.9-13,0.2c-15.5-9.1-31.1-18.2-46.8-27c-4.9-2.7-6.8-6.3-6.7-11.8c0.3-17.5,0.2-35,0-52.6
			c-0.1-5.5,1.8-9.1,6.7-11.8c15.7-8.8,31.4-17.8,46.8-27c4.6-2.7,8.3-2.5,12.8,0.1c15.5,9.2,31.1,18.2,46.9,26.9
			c4.4,2.4,6.2,5.5,6,10.5C298.6,133.3,298.8,142.6,298.8,151.9z"/>
		<path fill="#46483E" d="M21.5,160.6c0-12.6,0.1-25.2-0.1-37.9c-0.1-4.4,1.5-7.1,5.4-9.3C42.9,104.4,59,95.1,75,85.8
			c4-2.3,7.5-2.4,11.5-0.1c16,9.3,32,18.6,48.2,27.7c3.7,2.1,5.6,4.7,5.6,9.2c-0.2,25.5,0,51-0.1,76.5c0,7.1-1.7,8.1-7.6,4.8
			c-9-5-17.8-10.3-26.8-15.2c-3.9-2.1-5.4-5-5.3-9.4c0.2-10.8,0.1-21.6,0-32.5c-0.1-10.3-16.2-19-25.6-14.9
			c-10.6,4.7-15.2,11.5-13.7,23.2c1,7.9,0.1,15.9,0.2,23.9c0.1,4.3-1.3,7.3-5.2,9.5c-9.2,5.1-18.4,10.4-27.5,15.7
			c-5,2.9-7.1,1.3-7.1-4.2C21.6,186.9,21.5,173.7,21.5,160.6z"/>
		<path fill="#46483E" d="M496.5,151.7c0-9,0.2-18-0.1-27c-0.1-4.9,1.6-8.1,6-10.5c15.9-8.9,31.8-18,47.4-27.3
			c4.6-2.8,8.3-2.6,12.8,0.1c15.4,9.2,31.1,18.1,46.6,27.1c8.9,5.2,9,24,0.2,29.3c-8.8,5.3-17.8,10.3-26.7,15.5
			c-5,2.9-7.4,2.2-7.5-4.2c-0.2-14.3-3.7-18.7-17.1-23.9c-2.1-0.8-4-0.6-5.8,0.5c-1.8,1.1-3.5,2.1-5.3,3.1
			c-10.5,6-14,14.9-10.9,26.6c0.8,3,3.2,3.8,5.3,5.1c15.1,8.7,30.3,17.4,45.5,26.1c2.1,1.2,5.2,1.8,5.3,5c0.2,3.7-3.4,4.2-5.6,5.5
			c-8.2,4.7-16.7,9.1-24.9,13.9c-4,2.3-7.5,2.6-11.5,0.2c-16.2-9.4-32.5-18.7-48.9-27.8c-3.6-2-5-4.8-4.9-8.8
			C496.6,170.7,496.5,161.2,496.5,151.7z"/>
		<path fill="#8CC84C" d="M544.4,151.5c0-5.9,6.1-12.7,11.4-12.8c5.2-0.1,11.7,6.9,11.8,12.5c0,6.5-6.1,13.3-11.9,13.1
			C550.1,164.1,544.5,157.8,544.4,151.5z"/>
		<path fill="#FEFEFE" d="M417.9,152.4c-1.2,4.2,1.9,9.2-1.9,11.9c-5.5,4-11.9,9.6-17.9,9.6c-6,0-12.6-5.3-17.9-9.5
			c-4.2-3.3-1.6-9.2-1.8-13.8c-0.1-3.4-1.8-7.7,1.8-10c5.8-3.7,12-9.4,18-9.3c6,0.1,12.3,5.7,17.8,9.8
			C419.9,143.9,416.5,148.9,417.9,152.4z"/>
		<path fill="#8CC74B" d="M270,430.5c9.6-8.2,18.1-9.7,27.2-1.6c6.7,5.9,13.3,5.6,21.3,0.7c20.9-12.9,42.3-25,63.8-36.9
			c6.2-3.4,8.8-7.3,8.7-14.6c-0.5-25.4-0.4-50.8,0-76.2c0.1-7.2-2.3-11.2-8.6-14.7c-21.8-12.1-43.5-24.6-64.9-37.4
			c-6.4-3.8-11.6-4.3-18.3-0.3c-22.1,13.3-44.5,26.1-67,38.7c-5,2.8-6.9,6-6.9,11.8c0.3,26.7,0,53.3,0.2,80
			c0.1,11.2,27,26.7,36.6,21.3c5.7-3.2,5.6-8.7,5.6-14.2c0-25.8,0-51.7,0-77.5c0-5.3-1.3-10.9,7.5-11c8.6-0.1,7.9,5.1,7.8,10.6
			c0,27.9,0.2,55.8-0.1,83.7c-0.2,20.1-14.2,30.2-33.7,24.3c-11.7-3.5-21.6-10.6-31.8-17c-5.2-3.3-7.1-8.7-7.1-15.1
			c0.2-30,0.2-60,0-90c-0.1-8.5,3.6-14.1,10.8-18.2c25.3-14.4,50.6-28.9,75.7-43.6c7.6-4.5,14.6-4.6,22.3-0.2
			c25.5,14.9,51.2,29.4,76.9,44.1c6.7,3.8,10,9.4,10,17.4c-0.2,30-0.2,60,0,90c0.1,8.5-3.6,14.1-10.7,18.2
			c-25.3,14.5-50.5,29.1-75.7,43.6c-7.1,4.1-14.3,4.5-21.4,0.5C288.8,441.9,279.7,436.3,270,430.5z"/>
		<path fill="#8CC74B" d="M329.7,296.5c23.2,0.2,34.6,6.4,39,20.4c1.2,3.7,4.1,8.5-1.7,10.6c-4.7,1.7-9.4,1.7-13.1-3.6
			c-8.1-11.8-23.7-16.2-36.7-10.9c-4.1,1.7-7.4,4-7.3,9c0.1,5.4,4.1,6.8,8.4,7.5c10.2,1.8,20.5,3.2,30.7,5.2
			c17.3,3.3,24.1,10.1,24.2,23.4c0.1,14.4-7.8,22.9-24.4,26.7c-13.8,3.1-27.2,2.4-40.5-2.3c-8.4-3-14.4-8.4-17-16.9
			c-1.1-3.6-3.7-9.1,1.6-10.8c4.4-1.4,10-3.1,13.6,4.1c6.5,12.8,35.2,17.6,46.1,8.6c5.8-4.9,4.7-13.3-2.9-15.6
			c-8.3-2.5-17.1-3.2-25.7-4.7c-5.3-1-10.8-1.5-15.8-3.2c-9-2.9-14.8-8.8-15.4-18.9c-0.6-10.2,3.3-17.9,12-23
			C312.9,297.1,322,296.2,329.7,296.5z"/>
	</g>
</g>
</svg>
