<?xml version="1.0" encoding="utf-8"?>
<!-- Generator: Adobe Illustrator 18.1.0, SVG Export Plug-In . SVG Version: 6.00 Build 0)  -->
<!DOCTYPE svg PUBLIC "-//W3C//DTD SVG 1.1//EN" "http://www.w3.org/Graphics/SVG/1.1/DTD/svg11.dtd">
<svg version="1.1" id="Layer_1" xmlns="http://www.w3.org/2000/svg" xmlns:xlink="http://www.w3.org/1999/xlink" x="0px" y="0px"
	 viewBox="0 0 390.4 285.2" enable-background="new 0 0 390.4 285.2" xml:space="preserve">
<rect x="162.8" y="15" fill="#3D5385" width="90.2" height="57"/>
<rect x="162.8" y="115" width="7.7" height="155.7"/>
<rect x="252.9" y="15" fill="#A62B38" width="29.5" height="14.5"/>
<rect x="162.8" y="72" fill="#A62B38" width="119.6" height="14.5"/>
<rect x="252.9" y="42.9" fill="#A62B38" width="29.5" height="14.5"/>
<rect x="162.8" y="101.1" fill="#A62B38" width="119.6" height="14.5"/>
<rect x="282.4" y="30.3" fill="#781B2E" width="53" height="14.5"/>
<rect x="282.4" y="59.4" fill="#781B2E" width="53" height="14.5"/>
<rect x="282.4" y="88.4" fill="#781B2E" width="53" height="14.5"/>
<rect x="245" y="115.7" fill="#781B2E" width="90.4" height="14.5"/>
<polyline fill="#A62B38" points="282,115.7 245,115.7 245,130.7 "/>
<line fill="#781B2E" x1="282" y1="115.7" x2="282" y2="132.7"/>
<rect x="335.4" y="45.4" fill="#781B2E" width="53" height="14.5"/>
<rect x="298" y="130.4" fill="#781B2E" width="90.4" height="14.5"/>
<polyline fill="#A62B38" points="335,129.7 298,129.7 298,145.7 "/>
<rect x="335.4" y="74.5" fill="#781B2E" width="53" height="14.5"/>
<rect x="335.4" y="103.6" fill="#781B2E" width="53" height="14.5"/>
<rect x="282.4" y="44.8" fill="#DCD7D7" width="53" height="14.5"/>
<rect x="282.4" y="73.9" fill="#DCD7D7" width="53" height="14.5"/>
<rect x="282.4" y="103" fill="#DCD7D7" width="53" height="14.5"/>
<rect x="335.4" y="89" fill="#DCD7D7" width="53" height="14.5"/>
<rect x="335.4" y="59.9" fill="#DCD7D7" width="53" height="14.5"/>
<rect x="335.4" y="118.1" fill="#DCD7D7" width="53" height="14.5"/>
<text transform="matrix(1 0 0 1 -1.9999 206.5658)" font-family="'AvenirNext-Medium'" font-size="68">STERL</text>
<text transform="matrix(1 0 0 1 65.647 270.6651)" font-family="'AvenirNext-Medium'" font-size="68">BA</text>
<text transform="matrix(1 0 0 1 191.1086 270.665)" font-family="'AvenirNext-Medium'" font-size="68">DWIN</text>
<rect x="171.2" y="200.7" width="19.9" height="5.9"/>
<rect x="170.5" y="264.8" width="20.6" height="5.9"/>
<text transform="matrix(1 0 0 1 191.1086 206.5658)" font-family="'AvenirNext-Medium'" font-size="68">ING</text>
</svg>
